<svg width="253" height="340" viewBox="0 0 253 340" fill="none" xmlns="http://www.w3.org/2000/svg">
<path d="M214.497 205.912C217.014 203.681 219.549 201.324 219.031 198.058C218.766 196.313 217.826 194.742 216.414 193.684C215.001 192.625 213.23 192.164 211.48 192.399L201.627 148.185C202.359 149.077 202.448 149.399 202.93 149.399C203.05 149.399 203.168 149.37 203.274 149.314C203.38 149.258 203.47 149.177 203.537 149.077C206.358 145.138 208.888 140.998 211.106 136.689C215.14 130.263 208.339 126.729 204.59 133.119C204.29 132.042 203.766 131.04 203.052 130.179C202.339 129.318 201.452 128.617 200.449 128.121C199.387 127.746 198.227 127.746 197.165 128.121L171.871 14.7204C170.767 9.85315 167.782 5.62015 163.569 2.94494C159.356 0.26972 154.255 -0.630587 149.38 0.440432C81.2826 15.5415 37.6929 24.8057 33.3018 25.8231C22.9309 28.2507 15.4518 49.0281 17.7723 59.0777L39.1387 154.593C39.0107 154.487 38.8497 154.429 38.6836 154.429C38.5174 154.429 38.3564 154.487 38.2284 154.593C21.2709 166.981 9.54344 186.723 3.97425 206.537C-4.55805 236.578 1.72514 270.797 12.6315 299.928C14.9086 306.428 18.2044 312.526 22.3954 317.992C22.8238 318.545 23.7163 317.867 23.3415 317.296C16.0587 306.229 12.7743 296.75 8.88299 283.113C1.9215 259.587 -0.934504 234.49 4.72395 210.535C14.2737 171.747 38.4604 157.092 39.3886 155.735L47.1355 190.525C40.0484 198.314 34.2895 207.215 30.0888 216.872C29.7496 217.639 30.4458 217.978 30.8563 217.139C37.518 203.375 47.0565 191.201 58.8273 181.439C65.164 176.281 72.0006 171.104 79.8189 169.694C83.0361 169.09 86.3584 169.406 89.4043 170.604C101.578 175.567 97.6153 188.758 90.9751 200.128C75.3385 226.903 73.8034 229.688 71.6257 235.703C67.2168 249.127 71.6257 260.693 73.7677 274.117C78.7836 304.676 67.0026 314.904 64.575 318.385C63.6111 319.795 64.7356 320.063 65.1819 319.688C68.7963 316.591 71.6074 312.665 73.375 308.246L77.07 324.864C77.6105 327.304 78.627 329.613 80.0615 331.659C81.4959 333.705 83.3201 335.448 85.4293 336.788C87.5386 338.128 89.8915 339.038 92.3532 339.467C94.8149 339.896 97.3371 339.835 99.7752 339.287L213.212 314.011C222.655 311.834 233.918 295.876 231.508 283.756C231.437 281.15 232.686 287.468 214.497 205.912ZM53.7043 183.814L23.3593 47.8322C22.4257 43.6797 23.0877 39.3279 25.2139 35.6409C27.3402 31.9538 30.7751 29.2012 34.8369 27.9294C35.5152 27.6974 148.524 2.24328 149.719 1.97553C151.927 1.48402 154.209 1.43332 156.436 1.82633C158.663 2.21934 160.791 3.04832 162.696 4.2657C164.602 5.48307 166.248 7.06485 167.541 8.92023C168.834 10.7756 169.747 12.8681 170.229 15.0774L195.63 129.014C194.928 129.582 194.391 130.328 194.077 131.174C191.97 135.94 196.076 141.045 199.253 145.222L209.838 192.721C208.683 193.088 207.618 193.697 206.715 194.506C206.59 190.24 204.84 186.384 200.842 186.134L197.629 171.675C199.753 166.677 200.628 165.089 201.324 161.144C201.526 160.059 201.465 158.942 201.145 157.885C200.826 156.829 200.257 155.865 199.488 155.075C198.718 154.284 197.77 153.69 196.722 153.342C195.675 152.994 194.56 152.903 193.47 153.076L164.91 24.5558C163.926 20.2828 161.293 16.5717 157.585 14.2313C153.877 11.8908 149.395 11.1107 145.114 12.0608L45.7968 34.0698C41.5262 35.0578 37.8181 37.6914 35.4784 41.3981C33.1387 45.1049 32.3565 49.5852 33.3018 53.8655L60.9514 177.923C58.2918 179.779 55.9713 181.725 53.7043 183.814ZM85.0668 167.909C76.5345 166.999 69.0018 171.943 62.1831 176.834L34.6762 53.5263C33.825 49.6521 34.5435 45.5984 36.6747 42.2528C38.8058 38.9073 42.1758 36.5425 46.0467 35.6763C153.593 11.6324 146.257 13.1675 148.666 13.1496C152.083 13.1442 155.398 14.3082 158.061 16.4483C160.723 18.5883 162.574 21.5754 163.303 24.9128L191.863 153.433C187.115 154.7 184.402 159.894 183.777 164.143C180.618 159.77 174.745 157.895 171.282 162.144C170.495 163.484 170.12 165.026 170.202 166.578C170.285 168.13 170.822 169.623 171.746 170.872C173.084 172.767 174.564 174.557 176.173 176.227L166.766 178.94C166.106 169.623 161.143 152.879 151.308 139.26C149.603 136.634 147.365 134.396 144.739 132.691C147.942 129.737 150.627 126.268 152.683 122.427C152.766 122.283 152.799 122.116 152.776 121.951C152.754 121.787 152.677 121.634 152.559 121.518C152.44 121.401 152.286 121.328 152.121 121.308C151.956 121.289 151.79 121.324 151.647 121.41C151.255 121.66 150.826 121.892 150.416 122.106C150.96 121.279 151.381 120.377 151.665 119.429C151.692 119.304 151.687 119.174 151.648 119.052C151.61 118.93 151.541 118.821 151.447 118.734C151.353 118.647 151.238 118.587 151.113 118.558C150.989 118.53 150.859 118.535 150.737 118.572C148.952 119.304 147.47 117.411 147.006 115.519C145.668 109.95 147.006 107.594 143.775 100.811C146.541 96.2167 148.248 91.0642 148.773 85.7277C149.094 84.5502 149.038 83.3017 148.613 82.1577C148.314 81.6502 147.858 81.2538 147.313 81.0284C146.769 80.803 146.166 80.7608 145.596 80.9082C141.309 81.6648 137.158 83.0544 133.28 85.0316C133.851 80.5155 134.547 76.2494 134.69 71.9654C137.724 70.6266 146.167 66.7889 144.4 59.5953C143.49 55.829 138.349 51.0987 134.279 52.2947C134.499 49.9172 133.893 47.5366 132.563 45.5535C131.234 43.5704 129.261 42.1058 126.979 41.4062C124.407 40.8359 121.719 41.1346 119.335 42.2554C116.951 43.3762 115.007 45.2559 113.805 47.6001C111.989 45.5118 109.79 43.7909 107.326 42.5307C105.467 41.7418 103.436 41.4454 101.429 41.6702C99.4227 41.895 97.5078 42.6333 95.8696 43.8139C94.2314 44.9946 92.9253 46.5776 92.0773 48.4102C91.2294 50.2429 90.8682 52.2631 91.0287 54.276C85.1917 52.9551 78.6586 56.8821 78.9799 63.201C79.0263 64.6428 79.4308 66.0503 80.1569 67.2968C80.8829 68.5433 81.9078 69.5894 83.139 70.341C84.8023 71.0342 86.5303 71.5604 88.2976 71.9118C89.2783 72.248 90.1642 72.8138 90.8815 73.5622C91.5989 74.3106 92.1267 75.2197 92.421 76.2137C94.2292 81.1743 95.6613 86.264 96.705 91.4397C96.705 91.6182 97.0084 91.0827 95.4198 92.7785C94.1701 91.57 92.814 90.4767 91.3678 89.5119C89.7792 88.2089 88.3333 87.0486 86.8518 85.9419C77.3377 78.552 76.9986 93.2069 81.1755 102.578C82.5161 105.733 84.321 108.669 86.5305 111.289C86.4234 111.807 86.352 112.342 86.2806 112.86C85.4952 112.592 84.4956 114.02 84.2992 114.823C84.2652 114.931 84.2574 115.046 84.2765 115.158C84.2956 115.27 84.3411 115.375 84.4091 115.466C84.4771 115.557 84.5658 115.63 84.6678 115.68C84.7697 115.729 84.882 115.754 84.9954 115.751H85.995C85.7513 118.248 85.6678 120.759 85.7451 123.266C85.87 126.051 85.7451 132.602 83.0319 132.834C82.9083 132.83 82.7866 132.865 82.683 132.932C82.5794 133 82.499 133.097 82.4524 133.212C82.4058 133.326 82.3953 133.452 82.4223 133.573C82.4493 133.694 82.5125 133.803 82.6035 133.887C83.308 134.488 84.0809 135.003 84.9061 135.422H83.2639C83.153 135.42 83.0437 135.448 82.9484 135.505C82.8532 135.562 82.7759 135.645 82.7255 135.744C82.6752 135.842 82.6538 135.954 82.6638 136.064C82.6737 136.175 82.7147 136.28 82.782 136.368C87.7978 142.384 95.277 144.454 103.238 145.293C102.595 148.47 101.185 153.522 98.9719 156.164C98.1738 156.968 97.2364 157.622 96.2052 158.092C91.4035 159.252 89.0652 165.232 91.4928 170.123C89.5331 168.935 87.3421 168.18 85.0668 167.909ZM159.662 204.27C156.413 209.857 153.7 210.713 147.399 211.535L108.129 217.122C103.774 217.907 88.137 220.227 89.3686 216.033C90.6181 212.909 97.6867 204.234 99.4896 202.02C98.49 209.625 101.542 212.73 108.879 211.445C148.149 204.305 146.364 205.466 147.131 204.109C148.595 204.395 149.684 202.967 150.701 201.699C152.403 199.287 153.953 196.771 155.342 194.166C156.573 192.137 157.398 189.888 157.77 187.544C161.474 186.825 165.268 186.686 169.015 187.134C169.16 187.259 169.274 187.416 169.348 187.592C169.422 187.769 169.455 187.96 169.444 188.151C169.069 189.097 170.247 186.045 159.68 204.27H159.662ZM170.033 190.329C170.485 193.051 169.844 195.842 168.248 198.094L162.197 208.322C160.924 211.019 159.271 213.519 157.288 215.747C155.984 216.81 154.379 217.434 152.7 217.532C151.237 217.746 100.703 224.065 100.703 224.065C93.849 225.261 90.7074 225.029 89.3151 218.585C93.8133 221.263 105.755 218.389 147.167 212.98C153.504 212.159 157.252 211.427 160.751 205.144L170.033 190.329ZM114.234 183.76C114.617 184.024 114.97 184.33 115.287 184.67C114.304 185.556 113.446 186.571 112.734 187.687C112.725 187.734 112.725 187.782 112.734 187.829C112.743 187.876 112.762 187.921 112.788 187.96C112.815 188 112.849 188.034 112.889 188.061C112.928 188.087 112.973 188.106 113.02 188.115C113.067 188.125 113.115 188.125 113.162 188.115C113.209 188.106 113.253 188.088 113.293 188.061C113.333 188.035 113.367 188.001 113.394 187.961C113.42 187.921 113.439 187.877 113.448 187.83C114.185 186.968 114.998 186.173 115.876 185.456C116.254 186.074 116.588 186.718 116.875 187.383C116.733 187.58 116.643 187.651 116.643 187.776C116.639 187.835 116.645 187.894 116.663 187.95C116.681 188.006 116.71 188.058 116.748 188.103C116.787 188.147 116.833 188.184 116.886 188.211C116.938 188.238 116.995 188.254 117.054 188.258C117.447 188.258 118.036 186.955 120.624 184.688C120.802 184.92 120.91 185.134 121.213 185.134C121.279 185.137 121.344 185.126 121.405 185.102C121.466 185.077 121.521 185.04 121.566 184.993C121.612 184.946 121.647 184.889 121.669 184.828C121.691 184.766 121.7 184.7 121.695 184.635C121.662 184.404 121.589 184.181 121.481 183.974C122.072 183.459 122.725 183.021 123.426 182.671C123.811 183.141 124.146 183.65 124.426 184.188C123.324 185.298 122.31 186.492 121.392 187.758C121.337 187.825 121.309 187.909 121.311 187.996C121.314 188.082 121.348 188.164 121.407 188.227C121.466 188.29 121.545 188.33 121.631 188.339C121.717 188.348 121.803 188.326 121.873 188.276C122.123 188.276 122.373 187.544 124.944 185.152C125.039 185.501 125.239 185.812 125.515 186.045C123.426 188.276 121.659 190.507 122.516 193.631C122.652 194.161 122.893 194.658 123.224 195.093C123.555 195.528 123.97 195.893 124.444 196.166C124.596 196.966 125.054 197.676 125.72 198.146C126.386 198.616 127.209 198.808 128.014 198.683C129.083 198.539 130.107 198.161 131.013 197.576C133.226 199.04 135.261 196.862 136.618 195.541C138.384 193.775 139.985 191.851 141.401 189.793C142.294 188.508 141.99 188.829 142.187 188.883C142.687 189.026 142.847 188.151 144.668 186.152C144.893 186.603 145.174 187.023 145.507 187.401C145.566 187.498 145.661 187.568 145.772 187.595C145.882 187.622 145.999 187.603 146.096 187.544C146.193 187.485 146.263 187.39 146.289 187.279C146.316 187.169 146.298 187.052 146.239 186.955C146.005 186.413 145.711 185.898 145.364 185.42C145.944 184.761 146.59 184.163 147.292 183.635C147.642 184.152 147.952 184.695 148.22 185.259C147.024 186.473 145.981 187.827 145.114 189.293C144.936 189.847 145.81 189.972 145.81 189.49C146.656 188.285 147.618 187.167 148.684 186.152C149.059 186.884 149.327 187.616 149.827 187.401C149.947 187.335 150.041 187.23 150.096 187.105C150.151 186.979 150.163 186.838 150.13 186.705C150.017 186.206 149.85 185.721 149.63 185.259C150.883 184.209 152.214 183.254 153.611 182.403C149.306 187.515 146.726 193.856 146.239 200.521C146.275 201.302 146.239 202.085 146.132 202.859V203.002C145.685 204.02 144.007 204.038 143.775 204.073C143.044 204.073 145.792 203.716 109.86 209.91C105.773 210.606 101.899 210.713 101.167 206.697C100.061 198.95 104.416 188.74 114.234 183.76ZM115.34 183.278C116.351 182.76 117.425 182.376 118.536 182.136C115.108 184.117 116.733 184.403 115.412 183.278H115.34ZM119.374 182.992C120.428 184.278 120.106 182.992 117.589 186.33C117.388 185.752 117.086 185.214 116.697 184.742C117.515 184.052 118.414 183.464 119.374 182.992ZM120.374 182.475C121.083 182.229 121.76 181.899 122.391 181.493C122.766 181.886 122.784 181.493 121.124 182.796C120.642 183.153 120.999 183.135 120.374 182.475ZM127.514 182.885C127.675 183.224 127.514 183.153 127.764 183.421C127.461 183.813 126.586 184.902 126.247 185.206C126.144 184.877 126.006 184.56 125.836 184.26C126.122 184.117 126.372 183.849 127.585 182.885H127.514ZM125.265 183.332C125.137 183.081 124.988 182.842 124.819 182.618C124.674 182.437 124.519 182.264 124.355 182.1C124.97 181.775 125.601 181.484 126.247 181.225C126.491 181.439 126.717 181.672 126.925 181.921C126.372 182.365 125.842 182.835 125.336 183.332H125.265ZM144.686 184.492C145.165 183.646 145.589 182.769 145.953 181.868L146.631 182.832C145.903 183.32 145.258 183.923 144.721 184.617L144.686 184.492ZM148.131 182.992C148.916 182.493 149.077 182.421 149.63 182.029C150.416 182.029 151.219 182.029 152.022 182.153C148.077 184.51 149.952 185.277 148.202 182.992H148.131ZM154.735 189.222C154.63 189.068 154.47 188.96 154.287 188.92C154.104 188.88 153.914 188.911 153.754 189.008C153.432 189.258 153.432 189.329 152.504 190.614C152.308 190.4 152.111 190.222 151.933 190.007C151.862 189.914 151.758 189.851 151.642 189.831C151.526 189.811 151.406 189.836 151.308 189.9C150.773 190.257 151.415 191.043 151.808 191.685C151.487 192.185 151.165 192.703 150.898 193.203C150.837 193.284 150.802 193.382 150.797 193.483C150.792 193.584 150.816 193.685 150.867 193.772C150.919 193.86 150.995 193.93 151.086 193.975C151.177 194.02 151.279 194.037 151.38 194.024C151.38 194.024 151.647 194.024 151.701 193.899C153.111 192.471 152.201 192.542 153.486 193.435C153.64 193.531 153.824 193.568 154.003 193.542C153.147 195.113 149.13 202.36 147.488 203.074C147.532 195.567 150.319 188.336 155.324 182.743C155.327 182.804 155.345 182.864 155.376 182.916C155.407 182.969 155.451 183.014 155.503 183.046C155.681 183.403 155.86 183.76 156.021 184.135C156.637 187.022 156.092 190.036 154.503 192.524C154.503 192.292 154.378 192.274 153.504 191.614C154.682 190.222 155.182 189.793 154.807 189.222H154.735ZM155.646 180.904C155.551 180.839 155.439 180.805 155.324 180.805C155.21 180.805 155.098 180.839 155.003 180.904C152.246 180.483 149.453 180.345 146.667 180.493C151.713 169.353 152.692 156.796 149.434 145.008C149.409 144.914 149.366 144.826 149.308 144.749C149.249 144.671 149.176 144.607 149.092 144.558C149.009 144.509 148.916 144.477 148.82 144.464C148.724 144.451 148.626 144.456 148.532 144.481C148.439 144.506 148.351 144.548 148.273 144.607C148.196 144.666 148.131 144.739 148.082 144.823C148.034 144.906 148.002 144.999 147.989 145.095C147.975 145.191 147.981 145.289 148.006 145.382C149.839 152.479 150.195 159.877 149.053 167.117C147.91 174.356 145.294 181.285 141.366 187.473C139.755 189.845 138.009 192.121 136.136 194.291C135.172 195.416 134.226 197.005 131.816 196.398C131.633 196.298 131.483 196.147 131.385 195.963C131.286 195.779 131.244 195.57 131.263 195.362C131.423 193.685 132.209 193.577 132.53 191.507C132.53 191.388 132.483 191.275 132.399 191.191C132.316 191.108 132.202 191.061 132.084 191.061C131.965 191.061 131.852 191.108 131.768 191.191C131.684 191.275 131.637 191.388 131.637 191.507C131.272 192.272 130.855 193.012 130.388 193.72C130.137 194.154 129.981 194.636 129.928 195.134C129.876 195.632 129.929 196.136 130.084 196.612L129.263 197.023C127.336 197.933 126.05 197.255 125.693 196.094C124.837 193.328 128.246 190.989 128.139 190.364C128.13 190.286 128.1 190.212 128.053 190.149C128.006 190.085 127.943 190.036 127.87 190.005C127.798 189.974 127.718 189.963 127.64 189.973C127.562 189.983 127.488 190.013 127.425 190.061C125.926 191.078 124.863 192.619 124.444 194.381C122.659 192.167 124.444 189.151 126.229 187.419C136.6 177.423 137.849 161.769 133.369 148.149C133.28 147.685 132.494 147.792 132.583 148.149C134.993 159.252 135.564 170.033 129.96 179.976C125.716 179.762 121.462 180.098 117.304 180.975C112.163 182.439 114.323 183.26 114.287 180.19C115.116 173.01 114.28 165.735 111.842 158.931C111.538 158.092 110.771 158.502 110.949 159.145C111.318 160.335 111.639 161.584 111.913 162.893C111.535 164.502 111.064 166.087 110.503 167.641C109.816 169.636 108.472 171.338 106.692 172.469C104.912 173.601 102.801 174.095 100.703 173.871C101.043 173.78 101.36 173.618 101.634 173.397C101.908 173.176 102.132 172.899 102.292 172.586C102.43 172.66 102.582 172.703 102.738 172.711C103.774 172.711 105.416 170.926 106.041 170.194C106.533 169.421 106.783 168.518 106.757 167.602C106.732 166.685 106.432 165.798 105.898 165.053C105.162 163.389 104.259 161.804 103.202 160.323C103.243 160.214 103.243 160.093 103.202 159.984C102.204 158.832 100.845 158.051 99.3468 157.77C102.471 155.039 104.131 149.184 104.702 145.168C118.179 146.132 133.869 142.33 143.972 133.459C144.922 134.222 145.822 135.044 146.667 135.922C152.522 141.83 161.215 157.003 164.517 173.942C164.66 174.656 165.392 178.619 165.695 179.297C162.125 180.315 159.412 181.082 156.77 182.064C156.509 181.604 156.15 181.208 155.717 180.904H155.646ZM88.0834 135.386C87.9049 134.619 86.8161 135.137 84.3349 133.459C88.1905 131.085 86.5126 121.731 87.0124 115.502C88.7974 115.502 90.5824 115.305 92.3674 115.073C92.3868 116.514 92.7421 117.931 93.4053 119.211C94.0684 120.491 95.021 121.598 96.1873 122.445C95.3662 122.445 94.5451 122.285 93.7419 122.267C92.9386 122.249 90.4039 122.267 90.1719 122.82C90.1459 122.876 90.1317 122.937 90.1303 122.998C90.1289 123.06 90.1403 123.121 90.1638 123.178C90.1873 123.235 90.2224 123.287 90.2668 123.33C90.3112 123.372 90.3639 123.406 90.4218 123.427C92.5423 123.39 94.6632 123.462 96.7764 123.641C98.9439 123.929 101.086 124.383 103.185 124.998C103.289 124.998 103.389 124.956 103.462 124.883C103.536 124.809 103.577 124.709 103.577 124.605C103.577 124.501 103.536 124.401 103.462 124.327C103.389 124.254 103.289 124.212 103.185 124.212L102.828 124.087C105.069 123.812 107.135 122.735 108.644 121.055C110.153 119.375 111.004 117.206 111.039 114.948C111.308 114.93 111.578 114.979 111.824 115.091C112.165 117.179 113.206 119.089 114.776 120.506C116.346 121.924 118.352 122.765 120.463 122.891C120.414 122.931 120.378 122.985 120.359 123.045C120.34 123.105 120.339 123.17 120.356 123.231C120.535 123.57 120.963 123.231 121.749 122.874C123.952 122.715 126.027 121.778 127.603 120.232C131.566 118.447 133.672 117.661 136.261 116.412C136.814 116.287 136.386 115.394 135.993 115.609C123.676 119.964 131.53 119.732 130.209 112.039C137.1 112.039 139.277 110.004 143.918 105.113C145.346 110.753 144.543 117.608 148.167 119.714C148.662 120.026 149.242 120.175 149.827 120.143C149.267 121.36 148.422 122.426 147.363 123.248C147.226 123.35 147.128 123.494 147.084 123.659C147.041 123.823 147.054 123.998 147.123 124.153C147.191 124.309 147.311 124.437 147.461 124.516C147.612 124.595 147.785 124.62 147.952 124.587C148.705 124.377 149.444 124.121 150.166 123.82C147.569 128 144.186 131.637 140.205 134.53C120.088 148.417 92.2068 144.972 84.6027 136.44C85.6222 136.431 86.6384 136.323 87.6372 136.118C87.7933 136.08 87.9279 135.982 88.0116 135.845C88.0953 135.707 88.1211 135.543 88.0834 135.386ZM107.344 44.3514C109.656 45.8018 111.693 47.6512 113.359 49.8135C113.465 49.9225 113.598 50.0019 113.744 50.0439C113.89 50.0859 114.045 50.089 114.193 50.053C114.341 50.0169 114.476 49.9429 114.587 49.8383C114.697 49.7338 114.779 49.6021 114.823 49.4565C115.71 47.2007 117.361 45.3284 119.488 44.1668C121.616 43.0052 124.084 42.6283 126.461 43.1019C128.623 43.7398 130.445 45.2073 131.528 47.1838C132.612 49.1604 132.869 51.4855 132.244 53.6513C132.194 53.8379 132.205 54.0359 132.276 54.2155C132.348 54.3951 132.476 54.5466 132.641 54.6473C132.806 54.7479 132.999 54.7923 133.192 54.7736C133.384 54.7549 133.565 54.6743 133.708 54.5438C135.761 52.7588 138.724 54.8829 139.581 55.5612C140.52 56.2069 141.304 57.0522 141.878 58.0366C142.452 59.0211 142.801 60.1202 142.901 61.2554C142.901 66.4497 137.189 68.9309 133.387 70.5909C133.251 70.6667 133.14 70.7786 133.064 70.9141C132.988 71.0496 132.952 71.2034 132.958 71.3585C132.833 76.1244 132.066 81.0689 131.495 85.8884C129.71 86.7987 129.013 87.1914 129.013 87.1914C128.846 87.144 128.684 87.0781 128.532 86.9951C128.746 85.4957 129.977 77.2847 129.924 75.7674C129.889 75.6603 129.82 75.567 129.729 75.5009C129.638 75.4347 129.528 75.3991 129.415 75.3991C129.302 75.3991 129.192 75.4347 129.101 75.5009C129.01 75.567 128.942 75.6603 128.906 75.7674C128.567 76.9991 127.71 86.4774 127.693 86.5845C125.393 85.5326 122.941 84.8518 120.428 84.5675C120.57 83.1395 120.874 61.3625 120.874 60.5949C120.874 60.3093 120.588 60.3272 120.41 60.3272C120.342 60.327 120.276 60.3528 120.227 60.3992C120.177 60.4456 120.147 60.5092 120.142 60.5771C119.267 69.9126 119.071 81.5508 119.196 84.4425H118.66C114.289 83.8737 109.845 84.3886 105.719 85.9419C105.505 83.8356 103.934 75.696 102.81 70.698C102.81 70.2875 102.078 70.1447 102.078 70.698C102.07 70.7393 102.07 70.7817 102.078 70.823C103.434 78.32 104.184 84.6032 104.541 86.406C101.953 87.5546 99.5478 89.0761 97.4011 90.9221C96.6878 86.8357 95.7583 82.7899 94.6165 78.8019C91.8676 69.3236 88.7082 70.9122 84.7276 69.5021C83.6998 69.0673 82.7883 68.3976 82.0661 67.5468C81.3439 66.6961 80.8312 65.6878 80.5691 64.6031C80.307 63.5183 80.3029 62.3872 80.557 61.3005C80.8111 60.2139 81.3164 59.2019 82.0323 58.3458C83.204 57.007 84.7726 56.0772 86.5096 55.6919C88.2466 55.3066 90.0612 55.486 91.6891 56.2038C92.2782 56.4359 92.778 55.8468 92.7066 55.2399C92.3398 53.3672 92.5099 51.429 93.1973 49.6488C93.8847 47.8686 95.0614 46.319 96.5916 45.1788C98.1218 44.0386 99.9432 43.3543 101.846 43.2047C103.748 43.0552 105.654 43.4465 107.344 44.3336V44.3514ZM127.907 87.7269L127.443 87.959C127.337 88.0495 127.268 88.1756 127.248 88.3135C127.229 88.4515 127.26 88.5918 127.337 88.7081C127.414 88.8243 127.53 88.9085 127.665 88.9448C127.799 88.9811 127.943 88.9669 128.067 88.905C132.656 86.3446 137.51 84.2917 142.544 82.7825C143.883 82.4255 146.899 81.2831 147.595 82.6218C147.605 82.7823 147.605 82.9433 147.595 83.1038C145.657 83.163 143.786 83.8243 142.24 84.9959L132.833 90.3509C132.102 90.7793 133.297 91.5468 133.387 90.8864C133.387 90.7079 132.958 91.0292 144.561 84.8531C144.829 84.7103 147.31 83.4965 147.667 84.5496C146.364 95.3846 143.169 98.3655 141.508 101.703C141.436 101.836 141.416 101.99 141.452 102.137C141.487 102.283 141.576 102.411 141.701 102.496C141.825 102.58 141.977 102.616 142.126 102.595C142.276 102.573 142.412 102.498 142.508 102.382C142.615 102.257 142.687 102.114 142.794 101.989C143.01 102.442 143.201 102.907 143.365 103.381C135.332 111.735 136.707 108.986 129.995 111.235C129.419 109.02 128.048 107.094 126.143 105.825C124.238 104.556 121.932 104.033 119.666 104.355C117.4 104.677 115.331 105.822 113.855 107.572C112.379 109.322 111.599 111.553 111.663 113.841C111.422 113.728 111.162 113.662 110.896 113.645C110.6 111.409 109.502 109.357 107.806 107.871C106.11 106.384 103.931 105.565 101.676 105.565C99.421 105.565 97.2426 106.384 95.5466 107.871C93.8506 109.357 92.7525 111.409 92.4567 113.645C90.6717 113.895 88.8867 113.966 87.1017 114.056C87.7953 108.35 89.733 102.866 92.778 97.9907C105.023 78.4271 127.693 87.7269 127.907 87.7269ZM126.497 119.661C122.927 121.446 122.927 121.749 121.142 121.749C119.232 121.772 117.374 121.123 115.893 119.917C114.412 118.71 113.402 117.023 113.037 115.147C112.673 113.272 112.979 111.329 113.9 109.656C114.822 107.983 116.302 106.686 118.081 105.992C119.861 105.298 121.828 105.251 123.639 105.858C125.45 106.465 126.99 107.689 127.992 109.315C128.993 110.942 129.392 112.868 129.119 114.759C128.846 116.649 127.918 118.384 126.497 119.661ZM109.843 115.769C109.614 117.833 108.604 119.732 107.02 121.074C105.435 122.416 103.397 123.101 101.323 122.986C99.2496 122.872 97.2986 121.968 95.8712 120.459C94.4437 118.951 93.6483 116.953 93.6483 114.877C93.6483 112.8 94.4437 110.802 95.8712 109.294C97.2986 107.786 99.2496 106.882 101.323 106.767C103.397 106.653 105.435 107.337 107.02 108.68C108.604 110.022 109.614 111.92 109.843 113.984C108.664 114.877 108.789 116.448 109.807 115.841L109.843 115.769ZM92.2068 97.4373C90.636 94.7598 87.3694 90.815 85.9414 88.8693C84.5134 86.9237 83.7459 85.7456 81.8538 85.9419C81.4254 85.9419 81.3718 86.3168 81.5325 86.4953C82.0323 87.0843 82.5321 85.5492 84.6384 88.6016C86.3018 90.657 87.8512 92.8023 89.2794 95.0276C91.939 98.8832 92.064 97.598 91.2607 98.8832C90.428 97.59 89.3158 96.5001 88.0059 95.6938C86.6961 94.8875 85.222 94.3853 83.6923 94.2243C83.5752 94.2217 83.4609 94.2603 83.3693 94.3334C83.2778 94.4065 83.2148 94.5095 83.1914 94.6242C83.1681 94.739 83.1857 94.8584 83.2414 94.9615C83.2971 95.0646 83.3872 95.1448 83.496 95.1882C86.4217 95.6807 89.037 97.3025 90.7788 99.7043L90.3861 100.383C89.6203 99.6234 88.6546 99.0972 87.6015 98.8653C86.4221 98.6298 85.2301 98.463 84.0315 98.3655C83.9208 98.356 83.8103 98.3865 83.7202 98.4514C83.6301 98.5164 83.5662 98.6116 83.5403 98.7196C83.5144 98.8277 83.5281 98.9414 83.5789 99.0402C83.6297 99.139 83.7143 99.2163 83.8173 99.258C85.8879 100.043 88.0656 99.4187 90.0291 101.257C89.7435 101.775 89.4757 102.31 89.2437 102.846C88.3785 102.938 87.5439 103.219 86.7982 103.667C85.4238 104.327 86.0128 105.238 86.6376 104.916C87.2586 104.535 87.9321 104.246 88.6368 104.06C87.8712 105.949 87.2739 107.902 86.8518 109.897C80.5686 102.114 78.8371 92.1537 80.5686 86.6024C80.689 86.0548 81.016 85.5747 81.4815 85.2622C81.947 84.9496 82.5151 84.8287 83.0676 84.9245C84.1199 85.2719 85.0871 85.8376 85.9057 86.5845C92.4388 91.7789 91.6891 91.6896 94.6701 93.5996C93.6992 94.7763 92.8723 96.0646 92.2068 97.4373ZM93.1707 170.89C93.2074 170.762 93.2074 170.626 93.1707 170.497C89.6007 161.769 96.2409 156.378 101.721 160.269C101.596 160.769 102.488 162.161 102.792 162.572C105.916 168.052 105.755 168.552 103.095 170.854C102.756 171.14 102.649 171.194 102.578 171.14C102.373 170.921 102.209 170.667 102.096 170.39C100.578 167.641 100.311 166.82 99.793 167.035C99.7269 167.057 99.6675 167.095 99.6205 167.147C99.5735 167.198 99.5404 167.261 99.5243 167.329C99.5083 167.397 99.5098 167.468 99.5287 167.535C99.5476 167.602 99.5833 167.663 99.6324 167.713C99.8109 167.873 99.3468 167.374 100.739 170.694C101.507 172.479 101.649 171.604 100.739 172.211C99.3289 172.979 98.2401 173.05 97.1691 168.82C97.1277 168.706 97.0491 168.61 96.9461 168.547C96.8431 168.484 96.7218 168.457 96.6019 168.471C96.482 168.486 96.3704 168.541 96.2855 168.626C96.2005 168.712 96.147 168.824 96.1338 168.944C95.9958 170.205 96.3192 171.474 97.0441 172.514C96.6355 172.829 96.1586 173.043 95.6518 173.139C94.9815 172.233 94.1382 171.469 93.1707 170.89ZM96.5622 174.46C96.9519 174.351 97.3201 174.175 97.651 173.942C104.505 177.138 110.646 172.836 112.556 166.445C113.255 170.884 113.411 175.392 113.02 179.869C112.836 180.806 112.836 181.77 113.02 182.707C108.294 185.168 104.46 189.052 102.06 193.809C99.6418 194.425 97.2584 195.17 94.92 196.041C98.3115 189.169 100.632 180.904 96.5622 174.442V174.46ZM93.9918 197.897C102.506 194.988 99.3468 195.934 101.489 195.202C100.785 196.803 100.246 198.471 99.8823 200.182C95.6687 204.679 91.9024 209.575 88.6368 214.801C88.313 215.248 88.1381 215.785 88.137 216.336C88.1286 216.356 88.1243 216.377 88.1243 216.399C88.1243 216.42 88.1286 216.441 88.137 216.461C88.0889 219.161 88.9016 221.805 90.4575 224.012C91.2051 224.683 92.086 225.189 93.0426 225.497C93.9992 225.804 95.01 225.907 96.0088 225.797C97.9545 225.797 92.4388 226.296 152.361 219.103C157.716 218.853 159.805 215.943 162.393 211.213C164.017 208.232 169.908 198.415 170.033 198.236C170.994 196.684 171.582 194.93 171.752 193.112C171.923 191.295 171.67 189.462 171.015 187.758C171.029 187.473 170.986 187.189 170.888 186.921C170.79 186.653 170.639 186.408 170.444 186.199C170.249 185.991 170.014 185.824 169.753 185.709C169.493 185.593 169.211 185.532 168.926 185.527C165.257 185.087 161.543 185.214 157.913 185.902C157.909 184.78 157.684 183.67 157.252 182.635C161.822 181.511 163.321 180.975 177.226 177.12C180.926 180.829 184.842 184.316 188.954 187.562C189.024 187.654 189.114 187.729 189.218 187.781C189.322 187.833 189.436 187.86 189.552 187.86C189.668 187.86 189.782 187.833 189.886 187.781C189.989 187.729 190.08 187.654 190.15 187.562C192.488 182.921 194.648 178.387 196.576 174.032L199.271 186.116C198.361 186.304 197.508 186.706 196.785 187.29C196.062 187.874 195.488 188.622 195.112 189.472C193.488 192.614 193.916 196.612 194.291 200.093C194.291 200.753 195.433 212.427 195.897 216.747C195.907 216.961 196 217.164 196.157 217.311C196.313 217.458 196.522 217.537 196.736 217.532C199.677 216.177 202.511 214.602 205.215 212.82L215.14 257.355C215.991 261.23 215.272 265.283 213.141 268.629C211.01 271.975 207.64 274.339 203.769 275.206L104.452 297.339C100.576 298.176 96.5274 297.448 93.185 295.316C89.8426 293.184 87.4769 289.818 86.6019 285.951L74.7495 232.758C77.7126 225.297 89.8506 205.626 93.9918 197.897ZM229.759 284.755C229.724 288.592 228.385 292.302 225.961 295.277C223.538 298.252 220.175 300.314 216.425 301.124L102.917 326.417C98.5018 327.377 93.8865 326.556 90.0732 324.133C86.2598 321.71 83.5563 317.88 82.5499 313.476C77.9089 292.788 76.8558 287.451 76.8558 287.451C76.9473 284.813 76.8039 282.173 76.4274 279.561C74.7673 263.121 68.4841 251.001 73.6249 235.632L85.0668 286.433C86.0073 290.705 88.6007 294.43 92.2801 296.795C95.9595 299.16 100.425 299.972 104.702 299.053L204.091 276.937C208.364 275.953 212.075 273.32 214.415 269.613C216.756 265.905 217.536 261.422 216.586 257.141L206.536 212.052C208.767 210.535 210.909 208.893 212.98 207.161C231.544 290.092 229.795 281.15 229.741 284.755H229.759Z" fill="#5669FF"/>
<path d="M156.467 291.217C154.971 292.637 153.886 294.435 153.327 296.421C152.768 298.406 152.755 300.506 153.29 302.498C153.784 304.676 155 306.622 156.74 308.022C158.48 309.422 160.642 310.192 162.875 310.209C165.073 310.224 167.199 309.427 168.846 307.971C170.493 306.515 171.545 304.503 171.8 302.32C172.059 300.314 171.827 298.275 171.125 296.378C170.422 294.482 169.269 292.784 167.766 291.431C166.226 290.037 164.233 289.248 162.157 289.209C160.08 289.169 158.059 289.883 156.467 291.217ZM165.392 308.478C156.467 311.387 151.487 300.606 156.467 293.448C157.603 292.111 159.192 291.238 160.931 290.998C162.669 290.758 164.435 291.166 165.892 292.145C171.157 295.894 172.371 306.157 165.392 308.514V308.478ZM135.993 92.8677C137.885 91.5141 140.027 90.5495 142.294 90.0296C143.526 89.8154 143.954 89.7261 144.079 89.3691C144.085 89.2544 144.048 89.1417 143.975 89.0527C143.903 88.9636 143.8 88.9047 143.686 88.8872C140.744 89.0166 137.946 90.1942 135.797 92.2073C135.747 92.2573 135.712 92.3198 135.695 92.3881C135.677 92.4564 135.679 92.5281 135.699 92.5957C135.719 92.6632 135.757 92.7241 135.809 92.772C135.86 92.8198 135.924 92.8529 135.993 92.8677ZM143.704 93.0819C142.424 92.7246 141.08 92.6578 139.771 92.8863C138.461 93.1148 137.219 93.633 136.136 94.4028C136.068 94.4566 136.019 94.5314 135.998 94.6155C135.977 94.6996 135.985 94.7883 136.019 94.8678C136.054 94.9472 136.114 95.013 136.19 95.0549C136.266 95.0967 136.354 95.1122 136.439 95.099C138.021 94.218 139.805 93.7629 141.616 93.7781C142.919 93.7781 143.776 94.1886 143.954 93.6174C143.989 93.5131 143.983 93.3994 143.936 93.2997C143.89 93.2 143.807 93.122 143.704 93.0819ZM136.939 95.9379C136.877 95.925 136.812 95.9261 136.75 95.9412C136.689 95.9563 136.631 95.985 136.582 96.0251C136.532 96.0653 136.492 96.116 136.465 96.1734C136.438 96.2309 136.424 96.2937 136.424 96.3574C136.424 96.421 136.438 96.4839 136.465 96.5413C136.492 96.5988 136.532 96.6495 136.582 96.6896C136.631 96.7298 136.689 96.7585 136.75 96.7736C136.812 96.7887 136.877 96.7898 136.939 96.7769C138.072 96.8849 139.154 97.3051 140.063 97.9907C140.12 98.0442 140.193 98.0784 140.271 98.0883C140.349 98.0982 140.428 98.0834 140.497 98.0459C140.566 98.0084 140.622 97.9501 140.656 97.8794C140.69 97.8086 140.701 97.7289 140.688 97.6515C140.226 97.1093 139.651 96.675 139.003 96.3789C138.356 96.0828 137.651 95.9323 136.939 95.9379ZM121.802 124.73C126.158 122.249 129.603 122.231 132.869 121.285C133.405 121.285 133.28 120.321 132.869 120.392C128.823 120.703 124.911 121.982 121.463 124.123C120.91 124.373 121.267 125.069 121.802 124.73ZM89.3687 127.693C93.7361 126.274 98.3685 125.866 102.917 126.497C103.417 126.497 103.506 125.747 102.828 125.605C98.2409 124.539 93.4343 124.958 89.101 126.801C88.6369 126.89 88.9225 127.693 89.3687 127.693Z" fill="#5669FF"/>
<path d="M94.2775 131.495C96.8094 130.104 99.5348 129.1 102.364 128.514C102.949 129.546 103.814 130.392 104.86 130.954C105.905 131.516 107.088 131.772 108.272 131.691C108.576 132.655 109.16 133.506 109.95 134.137C110.616 134.733 111.434 135.135 112.313 135.296C113.192 135.458 114.099 135.373 114.934 135.052C115.768 134.731 116.498 134.185 117.042 133.476C117.586 132.766 117.924 131.92 118.018 131.031C119.255 130.928 120.437 130.471 121.422 129.715C122.406 128.958 123.152 127.934 123.569 126.765C132.048 126.443 133.048 126.515 136.832 126.086C137.421 126.086 137.367 125.176 136.832 125.105C132.483 125.069 128.136 125.319 123.819 125.854C123.865 125.714 123.901 125.571 123.926 125.426C123.964 125.333 123.981 125.233 123.977 125.133C123.972 125.033 123.946 124.935 123.9 124.846C123.854 124.757 123.79 124.679 123.711 124.617C123.632 124.555 123.541 124.511 123.444 124.488C123.346 124.464 123.245 124.462 123.147 124.481C123.048 124.501 122.955 124.541 122.874 124.6C122.793 124.658 122.725 124.734 122.676 124.821C122.626 124.908 122.596 125.005 122.588 125.105C122.552 125.421 122.48 125.733 122.373 126.033C121.927 126.033 121.249 126.033 121.285 126.515C121.32 126.997 121.731 126.836 122.052 126.836C121.717 127.506 121.246 128.099 120.668 128.576C120.09 129.052 119.418 129.402 118.696 129.603C116.447 130.103 114.716 128.728 113.341 125.444C115.465 122.552 114.484 121.463 113.341 121.874C112.966 121.999 113.341 121.963 111.413 121.963C109.486 121.963 109.271 123.659 110.753 124.998L111.592 125.694C111.199 128.032 110.325 130.513 107.879 130.567C107.034 130.548 106.205 130.338 105.453 129.951C104.702 129.565 104.048 129.012 103.542 128.336L104.238 128.211C104.702 128.211 104.97 127.354 103.934 127.354C100.297 127.342 96.7463 128.465 93.7777 130.567C93.7167 130.6 93.6629 130.644 93.6191 130.698C93.5754 130.751 93.5426 130.813 93.5227 130.879C93.5028 130.946 93.4962 131.015 93.5032 131.084C93.5102 131.153 93.5307 131.22 93.5635 131.281C93.5963 131.342 93.6408 131.396 93.6944 131.439C93.7481 131.483 93.8098 131.516 93.8761 131.536C93.9424 131.556 94.012 131.562 94.0809 131.555C94.1497 131.548 94.2165 131.528 94.2775 131.495ZM112.592 126.818C112.914 127.76 113.449 128.616 114.155 129.318C114.86 130.021 115.718 130.552 116.661 130.87C116.661 131.138 116.661 131.406 116.554 131.656C116.339 132.209 115.993 132.701 115.546 133.091C115.099 133.481 114.564 133.758 113.987 133.896C113.41 134.035 112.808 134.031 112.232 133.887C111.657 133.742 111.125 133.461 110.682 133.066C110.137 132.613 109.699 132.046 109.396 131.406C110.264 130.962 111.01 130.311 111.567 129.511C112.124 128.711 112.476 127.786 112.592 126.818ZM94.688 105.434C95.2949 105.434 95.4199 104.417 97.2227 103.292C98.1125 102.823 99.0449 102.441 100.007 102.15C100.757 101.685 100.436 100.365 98.6864 100.757L97.8296 101.079C96.2511 101.804 94.9846 103.07 94.2596 104.649C94.2223 104.727 94.2042 104.814 94.2067 104.901C94.2092 104.988 94.2322 105.074 94.274 105.15C94.3158 105.227 94.375 105.292 94.447 105.342C94.519 105.391 94.6015 105.423 94.688 105.434ZM123.319 99.3293C123.77 99.3204 124.22 99.3684 124.658 99.4721C125.621 99.7315 126.549 100.103 127.425 100.579C129.21 100.579 126.657 97.8834 123.462 97.812C122.828 97.7491 122.193 97.9206 121.677 98.294C120.767 99.2222 122.07 99.6327 123.319 99.3293ZM106.362 204.948C106.525 204.921 106.674 204.838 106.781 204.712C106.888 204.586 106.947 204.426 106.947 204.261C106.947 204.095 106.888 203.935 106.781 203.809C106.674 203.683 106.525 203.6 106.362 203.573C106.199 203.6 106.05 203.683 105.943 203.809C105.836 203.935 105.777 204.095 105.777 204.261C105.777 204.426 105.836 204.586 105.943 204.712C106.05 204.838 106.199 204.921 106.362 204.948ZM111.413 205.912C111.577 205.885 111.725 205.802 111.832 205.676C111.94 205.55 111.999 205.39 111.999 205.224C111.999 205.059 111.94 204.899 111.832 204.773C111.725 204.647 111.577 204.564 111.413 204.537C111.164 204.537 110.646 204.841 110.753 205.358C110.788 205.51 110.871 205.646 110.99 205.746C111.11 205.846 111.258 205.904 111.413 205.912ZM116.768 203.002C116.918 202.977 117.054 202.899 117.152 202.783C117.251 202.667 117.304 202.52 117.304 202.368C117.304 202.216 117.251 202.069 117.152 201.953C117.054 201.837 116.918 201.76 116.768 201.735C116.619 201.76 116.483 201.837 116.385 201.953C116.286 202.069 116.233 202.216 116.233 202.368C116.233 202.52 116.286 202.667 116.385 202.783C116.483 202.899 116.619 202.977 116.768 203.002ZM119.303 206.447C119.464 206.447 119.619 206.383 119.732 206.269C119.846 206.156 119.91 206.001 119.91 205.84C119.91 205.679 119.846 205.525 119.732 205.411C119.619 205.297 119.464 205.233 119.303 205.233C119.142 205.233 118.988 205.297 118.874 205.411C118.76 205.525 118.696 205.679 118.696 205.84C118.696 206.001 118.76 206.156 118.874 206.269C118.988 206.383 119.142 206.447 119.303 206.447ZM125.89 201.413C125.89 201.257 125.828 201.107 125.717 200.997C125.607 200.886 125.457 200.824 125.301 200.824C125.145 200.824 124.995 200.886 124.884 200.997C124.774 201.107 124.712 201.257 124.712 201.413C124.712 201.57 124.774 201.719 124.884 201.83C124.995 201.94 125.145 202.002 125.301 202.002C125.457 202.002 125.607 201.94 125.717 201.83C125.828 201.719 125.89 201.57 125.89 201.413ZM130.656 205.537C130.77 205.507 130.871 205.439 130.943 205.346C131.015 205.252 131.054 205.137 131.054 205.019C131.054 204.901 131.015 204.786 130.943 204.693C130.871 204.599 130.77 204.532 130.656 204.501C130.575 204.501 130.496 204.52 130.424 204.555C130.352 204.591 130.289 204.643 130.241 204.707C130.192 204.771 130.159 204.845 130.145 204.924C130.13 205.003 130.134 205.085 130.156 205.162C130.184 205.272 130.249 205.369 130.34 205.437C130.431 205.505 130.542 205.54 130.656 205.537ZM141.33 203.841C141.58 203.841 141.955 203.591 141.848 203.181C141.741 202.77 141.491 202.734 141.33 202.788C141.207 202.811 141.096 202.876 141.016 202.972C140.936 203.068 140.892 203.189 140.892 203.314C140.892 203.44 140.936 203.561 141.016 203.657C141.096 203.753 141.207 203.818 141.33 203.841ZM143.615 199.521C143.776 199.521 143.93 199.457 144.044 199.344C144.158 199.23 144.222 199.075 144.222 198.914C144.222 198.753 144.158 198.599 144.044 198.485C143.93 198.371 143.776 198.308 143.615 198.308C143.454 198.308 143.3 198.371 143.186 198.485C143.072 198.599 143.008 198.753 143.008 198.914C143.008 199.075 143.072 199.23 143.186 199.344C143.3 199.457 143.454 199.521 143.615 199.521ZM135.743 201.967C135.904 201.967 136.058 201.903 136.172 201.789C136.286 201.675 136.35 201.521 136.35 201.36C136.35 201.199 136.286 201.045 136.172 200.931C136.058 200.817 135.904 200.753 135.743 200.753C135.582 200.753 135.428 200.817 135.314 200.931C135.2 201.045 135.136 201.199 135.136 201.36C135.136 201.521 135.2 201.675 135.314 201.789C135.428 201.903 135.582 201.967 135.743 201.967ZM103.774 208.696C103.87 208.696 103.965 208.674 104.052 208.632C104.139 208.59 104.215 208.529 104.275 208.454C104.335 208.378 104.377 208.29 104.398 208.196C104.42 208.102 104.42 208.005 104.398 207.911C104.387 207.793 104.338 207.682 104.259 207.594C104.181 207.506 104.075 207.446 103.96 207.422C103.844 207.398 103.724 207.412 103.616 207.461C103.509 207.511 103.42 207.593 103.363 207.697C103.306 207.786 103.271 207.888 103.262 207.993C103.252 208.099 103.269 208.205 103.309 208.303C103.349 208.401 103.412 208.488 103.493 208.556C103.574 208.625 103.67 208.673 103.774 208.696ZM134.012 270.082L105.701 275.991C103.923 276.365 102.355 277.404 101.316 278.895C100.277 280.386 99.8451 282.217 100.109 284.015C100.373 285.813 101.313 287.442 102.737 288.572C104.16 289.701 105.961 290.245 107.772 290.092C108.557 290.092 106.255 290.253 136.814 284.005C137.81 283.911 138.775 283.609 139.647 283.118C140.518 282.627 141.277 281.958 141.874 281.155C142.47 280.352 142.891 279.433 143.11 278.456C143.328 277.48 143.339 276.469 143.142 275.488C142.944 274.507 142.543 273.579 141.964 272.763C141.385 271.948 140.641 271.263 139.78 270.753C138.919 270.243 137.961 269.92 136.967 269.805C135.973 269.689 134.966 269.784 134.012 270.082ZM136.493 282.363L108.272 288.272C106.92 288.463 105.546 288.131 104.431 287.343C103.317 286.555 102.545 285.371 102.273 284.033C102.002 282.695 102.252 281.304 102.972 280.145C103.692 278.985 104.828 278.144 106.148 277.794C127.336 273.313 133.119 272.064 134.708 271.778C136.069 271.609 137.444 271.954 138.564 272.747C139.684 273.539 140.467 274.722 140.759 276.062C141.015 277.453 140.71 278.89 139.911 280.057C139.111 281.224 137.882 282.027 136.493 282.292V282.363Z" fill="#5669FF"/>
<path d="M132.726 276.455C130.513 276.741 121.82 280.275 108.45 282.221C107.933 282.221 107.986 283.06 108.45 283.06C112.716 283.06 129.335 279.49 133.101 277.437C133.191 277.363 133.256 277.263 133.286 277.151C133.316 277.038 133.31 276.919 133.268 276.81C133.227 276.702 133.152 276.609 133.055 276.545C132.957 276.481 132.842 276.45 132.726 276.455ZM190.382 258.623C183.777 260.943 183.599 270.368 190.275 271.689C191.167 271.835 192.08 271.796 192.957 271.574C193.834 271.353 194.656 270.954 195.373 270.401C196.089 269.849 196.684 269.156 197.121 268.364C197.559 267.572 197.828 266.699 197.914 265.799C199.182 261.782 194.452 257.498 190.382 258.623ZM191.756 270.618C191.037 270.681 190.313 270.585 189.635 270.338C188.957 270.091 188.341 269.699 187.831 269.189C187.32 268.678 186.928 268.062 186.681 267.384C186.434 266.706 186.339 265.982 186.401 265.263C186.776 261.943 189.757 258.944 192.934 259.908C199.628 262.3 196.54 270.225 191.828 270.618H191.756Z" fill="#5669FF"/>
<path d="M190.114 263.21C189.61 263.247 189.135 263.462 188.775 263.817C188.097 264.835 188.615 265.602 189.614 265.602C189.472 267.012 189.311 268.726 190.56 268.797C190.989 268.797 192.845 268.44 193.845 268.226C193.963 268.236 194.082 268.221 194.195 268.183C194.307 268.144 194.41 268.082 194.497 268.002C194.585 267.921 194.654 267.823 194.702 267.715C194.749 267.606 194.773 267.488 194.773 267.369C194.773 266.762 194.773 267.762 194.577 265.227C195.076 265.227 195.308 264.995 195.326 264.585L195.219 263.496C195.217 263.418 195.199 263.342 195.168 263.272C195.136 263.201 195.09 263.137 195.034 263.084C194.978 263.031 194.911 262.99 194.839 262.963C194.767 262.935 194.69 262.922 194.612 262.925C194.13 262.925 193.416 263.014 193.416 263.014C193.416 263.014 194.202 262.764 194.309 262.211C194.345 262.077 194.344 261.936 194.306 261.803C194.269 261.669 194.196 261.549 194.095 261.454C193.994 261.358 193.87 261.292 193.735 261.262C193.599 261.232 193.459 261.239 193.327 261.282C193.027 261.446 192.761 261.667 192.547 261.934C192.332 262.2 192.173 262.507 192.078 262.835C190.792 260.497 188.793 261.943 190.114 263.21ZM193.381 265.263C193.381 266.084 193.506 266.423 193.577 267.048C192.917 267.048 191.257 267.548 190.632 267.637C190.612 267.537 190.612 267.434 190.632 267.334V265.549C191.539 265.379 192.458 265.284 193.381 265.263ZM175.441 260.658C170.086 260.069 166.516 265.495 167.998 270.404C168.558 271.794 169.534 272.976 170.794 273.788C172.053 274.6 173.534 275.002 175.031 274.938C183.242 274.402 183.956 261.479 175.441 260.658ZM179.011 271.832C177.915 272.988 176.404 273.662 174.811 273.705C173.218 273.749 171.673 273.158 170.515 272.064C169.577 271.114 168.979 269.882 168.812 268.558C168.646 267.235 168.92 265.893 169.592 264.74C170.265 263.588 171.299 262.689 172.534 262.184C173.768 261.678 175.135 261.593 176.423 261.943C177.394 262.255 178.269 262.81 178.967 263.553C179.665 264.297 180.162 265.206 180.412 266.195C180.662 267.184 180.656 268.22 180.396 269.206C180.135 270.192 179.628 271.096 178.922 271.832H179.011ZM202.234 261.247L205.001 262.496C204.162 263.942 203.395 265.388 202.716 266.762C202.636 266.893 202.61 267.049 202.645 267.198C202.681 267.347 202.773 267.476 202.904 267.557C203.034 267.637 203.191 267.663 203.34 267.627C203.489 267.592 203.617 267.499 203.698 267.369C204.537 266.102 205.483 264.727 206.393 263.121C207.339 263.603 207.661 263.71 209.428 264.442C209.804 264.68 210.256 264.77 210.695 264.692C210.784 264.665 210.865 264.619 210.932 264.555C210.999 264.492 211.05 264.414 211.081 264.327C211.113 264.24 211.123 264.147 211.112 264.055C211.1 263.964 211.068 263.876 211.016 263.799C210.606 263.282 210.57 263.353 207.089 262.014C207.964 260.497 209.66 258.284 208.464 257.909C207.589 257.641 206.679 259.694 205.661 261.479L202.68 260.265C201.984 259.872 201.592 260.979 202.234 261.247ZM135.957 246.342C132.494 246.824 126.729 248.413 116.162 250.483C100.936 253.482 101.417 253.071 96.3481 254.446C96.2382 254.475 96.1411 254.541 96.0719 254.631C96.0027 254.721 95.9652 254.832 95.9652 254.946C95.9652 255.059 96.0027 255.17 96.0719 255.26C96.1411 255.351 96.2382 255.416 96.3481 255.445C99.6325 255.445 129.995 249.394 136.207 247.627C136.359 247.576 136.487 247.472 136.567 247.333C136.648 247.195 136.675 247.032 136.645 246.875C136.614 246.718 136.528 246.577 136.401 246.479C136.275 246.381 136.117 246.332 135.957 246.342ZM151.826 233.258C157.181 232.258 162.982 231.473 168.355 230.188C169.033 230.188 168.98 228.992 168.355 229.063C158.038 230.098 94.7594 242.843 93.8134 244.432C92.6174 246.378 107.826 241.237 151.826 233.258ZM181.546 234.329C179.333 232.883 176.762 234.204 175.334 236.292C172.835 240.773 173.728 244.968 175.513 249.805C175.334 249.805 97.4012 265.299 97.2762 265.566C97.1513 265.834 97.2763 266.245 97.6333 266.245C102.649 266.245 169.765 252.839 175.995 251.037C176.51 252.38 177.106 253.692 177.78 254.964C177.85 255.081 177.949 255.179 178.068 255.248C178.187 255.317 178.321 255.354 178.458 255.356C179.315 255.356 186.812 250.198 188.561 248.948C191.096 247.163 193.702 245.2 194.095 242.058C194.773 236.524 187.49 235.239 183.867 238.488C183.667 236.851 182.834 235.358 181.546 234.329ZM53.5438 40.9777C52.4765 40.3507 51.2595 40.0244 50.0217 40.0334C48.784 40.0424 47.5718 40.3864 46.5138 41.0289C45.4559 41.6714 44.5916 42.5883 44.0128 43.6824C43.434 44.7765 43.1623 46.0069 43.2265 47.2431C43.1685 47.3203 43.1372 47.4142 43.1372 47.5108C43.1372 47.6074 43.1685 47.7013 43.2265 47.7786C44.0794 48.8257 45.1965 49.6262 46.4623 50.0973C47.7281 50.5683 49.0967 50.6929 50.4267 50.4582C51.7567 50.2235 53 49.638 54.0281 48.7621C55.0562 47.8862 55.8318 46.7518 56.2748 45.4759C56.7568 45.0832 56.4712 44.5834 56.3998 44.3514C55.9251 42.8968 54.9 41.6859 53.5438 40.9777ZM44.0119 47.368C44.0651 46.1917 44.4459 45.0536 45.1114 44.0822C45.7768 43.1108 46.7005 42.3447 47.7782 41.8702C45.422 43.6552 46.1539 48.6711 48.9742 49.1709C47.1528 49.2117 45.3822 48.5685 44.0119 47.368ZM50.7235 48.8853C51.3692 48.4016 51.8748 47.755 52.1885 47.0116C52.5021 46.2682 52.6126 45.4549 52.5085 44.6548C52.4515 43.9285 52.1945 43.2322 51.766 42.643C51.3375 42.0538 50.7543 41.5948 50.0809 41.3169C51.1219 41.3217 52.139 41.6298 53.0076 42.2037C53.8763 42.7775 54.5588 43.592 54.9718 44.5477C54.6718 45.5514 54.1362 46.4687 53.4096 47.2233C52.683 47.9778 51.7865 48.5477 50.7949 48.8853H50.7235ZM62.6651 38.5858C62.6316 38.438 62.547 38.3068 62.4262 38.2153C62.3053 38.1238 62.156 38.0781 62.0047 38.086C60.8801 38.086 61.7369 39.4426 60.2197 43.6017C60.1875 43.7048 60.1909 43.8158 60.2293 43.9168C60.2678 44.0178 60.3391 44.1029 60.4318 44.1585C60.5244 44.2141 60.6331 44.2369 60.7403 44.2233C60.8475 44.2098 60.947 44.1605 61.0229 44.0836C61.4165 43.4154 61.7281 42.7022 61.9511 41.9595C62.2724 43.6195 62.6116 45.226 62.9507 46.7611C62.9718 46.8525 63.0107 46.9389 63.0652 47.0153C63.1196 47.0917 63.1886 47.1566 63.2682 47.2063C63.3478 47.256 63.4363 47.2896 63.5289 47.3051C63.6214 47.3206 63.7161 47.3177 63.8075 47.2966C63.8989 47.2755 63.9853 47.2366 64.0617 47.1821C64.1381 47.1277 64.203 47.0587 64.2527 46.9791C64.3024 46.8995 64.336 46.811 64.3515 46.7184C64.367 46.6259 64.3641 46.5312 64.343 46.4398C63.8432 43.8694 63.272 41.3169 62.6651 38.5858ZM73.8035 43.4589C72.1792 43.7445 71.1617 43.9408 69.8944 44.28C71.1709 42.6495 71.896 40.6554 71.965 38.5858C71.9169 38.0122 71.6945 37.467 71.3275 37.0235C70.9606 36.5799 70.4667 36.2593 69.9122 36.1047C69.3949 35.9175 68.8328 35.893 68.3012 36.0346C67.7696 36.1763 67.2941 36.4771 66.9385 36.8968C66.5829 37.3166 66.3643 37.835 66.3119 38.3826C66.2596 38.9302 66.376 39.4808 66.6457 39.9603C66.7706 40.4779 67.6453 39.9603 67.5203 39.6568C67.3633 39.2252 67.3611 38.7524 67.5142 38.3194C67.6672 37.8863 67.9659 37.5199 68.3593 37.2828C68.7609 37.1173 69.2091 37.104 69.6198 37.2453C70.0305 37.3866 70.3757 37.6728 70.5905 38.0503C70.7342 38.6597 70.7481 39.2924 70.6312 39.9075C70.5143 40.5225 70.2694 41.1061 69.9122 41.6203C68.2522 44.9047 67.0562 45.1903 67.7702 45.94C67.848 46.0242 67.9474 46.0854 68.0576 46.1169C68.1677 46.1483 68.2845 46.1489 68.395 46.1185C70.3558 45.8478 72.2945 45.4362 74.1962 44.8869C74.3411 44.8011 74.4538 44.67 74.5168 44.5139C74.5799 44.3578 74.5899 44.1852 74.5452 44.0229C74.5006 43.8605 74.4038 43.7174 74.2697 43.6154C74.1357 43.5135 73.9719 43.4585 73.8035 43.4589ZM81.6397 41.6203C81.8971 40.8744 81.9114 40.066 81.6805 39.3114C81.4496 38.5569 80.9854 37.8949 80.3546 37.4208C79.7237 36.9467 78.9588 36.6849 78.1698 36.6729C77.3808 36.6609 76.6083 36.8994 75.9634 37.3542C75.8485 36.8229 75.6301 36.3195 75.3208 35.8726C76.6912 35.7016 78.0275 35.3224 79.2835 34.7481C79.4498 34.7162 79.6042 34.6396 79.7301 34.5263C79.8559 34.413 79.9484 34.2675 79.9975 34.1055C80.026 33.9697 80.0121 33.8285 79.9579 33.7008C79.9036 33.5731 79.8115 33.4652 79.694 33.3915C79.1942 33.088 78.6052 33.4986 78.2125 33.6592C71.0725 36.3903 75.0352 34.284 74.8924 38.7108C74.8957 38.8474 74.9426 38.9795 75.0261 39.0877C75.1097 39.1959 75.2256 39.2747 75.357 39.3125C75.4884 39.3503 75.6284 39.3453 75.7567 39.298C75.885 39.2508 75.9949 39.1639 76.0705 39.0499C76.1144 39.0056 76.1453 38.95 76.1597 38.8893C76.515 38.4004 77.0434 38.0655 77.637 37.9528C78.2307 37.84 78.8451 37.9579 79.3549 38.2824C79.6995 38.5347 79.9731 38.8717 80.1493 39.2608C80.3256 39.6499 80.3983 40.0778 80.3606 40.5033C80.3229 40.9288 80.176 41.3373 79.9342 41.6893C79.6923 42.0414 79.3636 42.325 78.98 42.5128C78.0693 42.8548 77.0879 42.9652 76.124 42.8341C75.5885 42.8341 75.3386 43.3875 75.6956 43.7088C76.1999 44.0626 76.7813 44.2911 77.3915 44.3752C78.0018 44.4593 78.6233 44.3967 79.2045 44.1925C79.7857 43.9883 80.3098 43.6484 80.7333 43.201C81.1568 42.7537 81.4675 42.2118 81.6397 41.6203ZM83.5139 38.9607C84.6452 38.8294 85.7624 38.5964 86.8519 38.2645C86.8774 39.4765 87.0758 40.6786 87.4409 41.8345C87.5122 41.9369 87.6102 42.0176 87.7244 42.0678C87.8385 42.1181 87.9643 42.1359 88.0879 42.1193C88.2115 42.1027 88.3282 42.0523 88.425 41.9737C88.5218 41.8951 88.5951 41.7914 88.6369 41.6739C88.7404 40.3861 88.6011 39.0903 88.2263 37.854C88.8887 37.7603 89.5092 37.4749 90.0113 37.0329C90.0775 36.9485 90.1209 36.8485 90.1373 36.7425C90.1537 36.6365 90.1425 36.5281 90.1049 36.4277C90.0672 36.3272 90.0044 36.2382 89.9223 36.1691C89.8403 36.1001 89.7418 36.0533 89.6365 36.0333C87.4588 35.7477 88.1549 37.4434 87.5837 34.641C87.5837 34.4942 87.5254 34.3534 87.4216 34.2497C87.3179 34.1459 87.1771 34.0876 87.0304 34.0876C86.8836 34.0876 86.7429 34.1459 86.6391 34.2497C86.5353 34.3534 86.477 34.4942 86.477 34.641C86.477 34.9266 86.477 34.8016 86.602 36.6402C85.9594 36.8187 85.3882 37.0329 84.817 37.2649C84.2458 37.497 85.2454 35.3193 85.4596 32.5168C85.4611 32.4239 85.4297 32.3335 85.3708 32.2616C85.312 32.1897 85.2296 32.141 85.1383 32.1241C84.4957 31.9992 84.4778 32.6775 83.1926 38.1039C83.1252 38.2605 83.1209 38.4372 83.1808 38.5969C83.2407 38.7566 83.3601 38.887 83.5139 38.9607Z" fill="#5669FF"/>
<path d="M93.9919 39.3713C97.901 39.3713 98.7935 32.8917 95.0093 30.1428C93.0994 28.7684 91.2073 29.1075 90.3505 31.3388C89.2795 34.3554 90.886 39.3713 93.9919 39.3713ZM94.9379 32.2313C96.4552 34.1591 96.0625 37.2828 94.331 37.9254C92.5996 38.568 91.1359 35.7656 91.2787 33.2487C91.5107 29.8037 93.6527 30.4463 94.9914 32.1599L94.9379 32.2313Z" fill="#5669FF"/>
<path d="M101.56 37.7468C105.934 37.7468 106.915 30.4283 103.06 27.8936C102.706 27.6227 102.296 27.435 101.859 27.3446C101.423 27.2542 100.972 27.2634 100.539 27.3715C100.107 27.4796 99.7048 27.6838 99.3624 27.9689C99.0199 28.2539 98.7461 28.6126 98.5615 29.0181C98.0842 29.7238 97.8011 30.5425 97.7404 31.3922C97.0621 34.1768 98.6329 37.7468 101.56 37.7468ZM99.1505 30.0713C99.2514 29.7839 99.4115 29.5208 99.6204 29.2991C99.8294 29.0775 100.082 28.9021 100.363 28.7843C100.644 28.6666 100.947 28.609 101.251 28.6155C101.556 28.622 101.856 28.6922 102.131 28.8218C104.934 30.6068 104.381 37.247 100.454 35.9618C99.8885 35.5642 99.4377 35.0252 99.1463 34.3987C98.855 33.7722 98.7334 33.0801 98.7935 32.3918C98.781 31.6037 98.9017 30.8192 99.1505 30.0713ZM107.165 34.6944C107.504 34.6944 106.772 34.6944 109.182 34.3374C110.467 34.1411 110.271 34.1768 112.11 33.8019C112.751 33.7754 113.37 33.5647 113.895 33.195C114.042 33.0449 114.124 32.843 114.124 32.6328C114.124 32.4225 114.042 32.2206 113.895 32.0705C113.466 31.6421 112.395 31.8027 111.842 32.0705C109.896 32.4989 110.164 32.4275 108.95 32.7666C109.868 31.3249 110.476 29.708 110.735 28.0185C110.967 26.2335 109.468 24.6449 108.004 25.1447C107.71 25.2292 107.449 25.4016 107.256 25.6387C107.063 25.8759 106.947 26.1665 106.923 26.4715C106.9 26.7765 106.97 27.0813 107.125 27.3451C107.28 27.6089 107.512 27.819 107.79 27.9471C108.772 28.3755 108.825 27.1796 108.433 27.126C108.345 27.1015 108.268 27.047 108.216 26.9721C108.164 26.8972 108.139 26.8065 108.147 26.7155C108.147 26.0907 108.754 26.1264 109.093 26.4299C110.539 27.84 108.165 31.8741 106.665 33.5699C106.598 33.6723 106.558 33.7899 106.548 33.9119C106.538 34.034 106.559 34.1566 106.609 34.2685C106.658 34.3804 106.735 34.478 106.833 34.5524C106.93 34.6268 107.044 34.6757 107.165 34.6944ZM115.537 29.9642C116.162 29.9642 115.983 29.6072 116.84 26.6441C118.089 31.9991 118.161 32.3382 118.803 32.6417C118.9 32.717 119.02 32.7578 119.143 32.7578C119.265 32.7578 119.385 32.717 119.482 32.6417C119.946 32.0169 119.749 31.7313 118.553 27.5187C117.554 24.038 117.554 23.8595 116.876 23.8416C116.749 23.8482 116.629 23.8978 116.535 23.9823C116.441 24.0667 116.378 24.1809 116.358 24.3057C116.019 25.9658 115.573 27.5901 115.055 29.393C115.057 29.5293 115.106 29.6607 115.194 29.7648C115.282 29.869 115.403 29.9394 115.537 29.9642ZM171.729 222.958L174.067 225.208C174.62 225.904 175.995 227.296 176.869 227.296C177.744 227.296 178.654 226.064 179.297 225.1C180.929 223.232 182.179 221.061 182.974 218.71C183.777 214.551 178.529 211.32 175.941 216.925C173.996 213.855 166.624 214.765 168.159 218.71C169.005 220.383 170.227 221.836 171.729 222.958ZM232.187 102.4C231.596 102.013 230.895 101.828 230.19 101.873C229.486 101.919 228.814 102.191 228.277 102.649C226.996 103.962 226.079 105.586 225.618 107.362C224.649 109.605 223.803 111.899 223.083 114.234C222.744 115.68 223.547 115.68 223.868 115.412C227.046 115.662 237.613 113.234 237.381 109.664C237.2 108.824 236.702 108.086 235.99 107.604C235.279 107.122 234.409 106.933 233.561 107.076C233.822 106.248 233.831 105.361 233.586 104.529C233.341 103.696 232.854 102.955 232.187 102.4ZM231.776 161.858C234.311 158.413 236.613 154.325 236.131 149.648C236.083 148.418 235.764 147.214 235.196 146.121C234.629 145.029 233.826 144.076 232.847 143.33C230.598 141.991 228.045 143.919 226.332 145.222C217.657 151.755 214.961 162.875 212.534 172.407C212.034 174.424 211.498 176.495 211.195 178.53C210.07 182.403 213.105 183.206 215.693 183.421C223.351 184.01 234.561 179.672 242.308 177.494C246.056 176.441 252.339 174.674 252.232 169.212C252.161 163.197 241.451 157.627 231.776 161.858ZM221.78 99.954C221.847 100.043 221.933 100.115 222.032 100.164C222.131 100.214 222.24 100.24 222.351 100.24C222.462 100.24 222.571 100.214 222.671 100.164C222.77 100.115 222.856 100.043 222.922 99.954C228.137 92.2976 232.802 84.2806 236.881 75.9636C240.183 68.8236 236.167 59.6309 228.652 61.2552C225.582 61.9692 222.922 64.3433 220.763 68.306C220.029 65.8204 218.376 63.7077 216.139 62.3977C208.732 58.2207 200.289 66.2532 204.376 73.661C209.127 83.0769 214.969 91.9018 221.78 99.954ZM101.132 113.217C101.145 113.716 101.211 114.213 101.328 114.698C101.435 115.769 101.578 116.912 102.649 116.912C102.79 116.907 102.928 116.875 103.056 116.817C103.185 116.758 103.3 116.676 103.396 116.573C103.492 116.47 103.567 116.349 103.617 116.218C103.666 116.086 103.689 115.946 103.684 115.805C103.516 114.837 103.259 113.887 102.917 112.967C102.83 112.786 102.688 112.637 102.511 112.543C102.334 112.448 102.132 112.412 101.933 112.44C101.734 112.468 101.55 112.558 101.406 112.697C101.262 112.837 101.166 113.019 101.132 113.217ZM121.606 110.325C121.413 110.18 121.174 110.11 120.934 110.13C120.694 110.15 120.469 110.257 120.303 110.432C119.535 110.789 119.41 114.966 121.106 114.966C121.365 114.974 121.618 114.888 121.818 114.724C122.018 114.56 122.152 114.329 122.195 114.073C122.195 113.27 122.088 113.359 122.088 112.824C122.088 110.932 121.945 110.593 121.606 110.325ZM178.28 265.12C177.476 263.639 175.37 264.103 174.71 265.638C174.54 265.419 174.327 265.237 174.084 265.103C173.842 264.97 173.574 264.887 173.299 264.86C173.023 264.833 172.744 264.863 172.481 264.948C172.217 265.032 171.973 265.17 171.764 265.352C171.465 265.623 171.228 265.955 171.069 266.326C170.91 266.697 170.833 267.098 170.843 267.501C170.853 267.904 170.95 268.301 171.128 268.663C171.305 269.025 171.559 269.345 171.871 269.6C172.942 270.363 174.084 271.02 175.281 271.564C175.467 271.688 175.682 271.762 175.906 271.778C176.405 271.778 176.62 270.975 176.816 270.6C178.03 268.119 178.833 266.816 178.28 265.12ZM155.646 269.922C155.949 271.707 156.217 273.706 156.342 274.295L159.733 273.51C159.983 273.51 160.001 273.635 159.109 269.279C157.936 269.379 156.776 269.594 155.646 269.922Z" fill="#5669FF"/>
<path d="M155.824 265.227C154.532 265.736 153.401 266.586 152.553 267.686C151.704 268.786 151.169 270.095 151.005 271.475C150.855 272.347 150.896 273.241 151.126 274.095C151.355 274.95 151.768 275.744 152.335 276.423C152.902 277.102 153.61 277.65 154.41 278.028C155.209 278.407 156.082 278.607 156.967 278.615C158.339 278.554 159.672 278.141 160.838 277.416C162.004 276.691 162.964 275.677 163.625 274.474C165.624 269.797 161.197 263.728 155.824 265.227ZM161.179 273.76V274.009C160.787 274.973 160.215 275.063 157.056 275.616L156.556 275.705C156.368 275.766 156.17 275.788 155.974 275.77C155.777 275.751 155.587 275.693 155.414 275.598C155.273 275.506 155.156 275.382 155.073 275.236C154.989 275.09 154.941 274.927 154.932 274.759C154.932 274.581 154.932 274.063 154.789 273.403C154.586 272.223 154.473 271.029 154.45 269.833C154.379 269.606 154.379 269.363 154.45 269.136C154.511 268.995 154.604 268.871 154.722 268.771C154.84 268.672 154.979 268.602 155.128 268.565C156.454 268.217 157.801 267.961 159.162 267.798C159.399 267.794 159.632 267.866 159.824 268.005C160.017 268.143 160.161 268.339 160.233 268.565C160.572 270.243 160.769 271.296 160.911 271.992C161.103 272.561 161.193 273.159 161.179 273.76Z" fill="#5669FF"/>
</svg>
